# xmcd
#
# Track frame offsets: 
#        150
#        18997
#        50150
#        58992
#
# Disc length: 871 seconds
#
# Revision: 1
# Processed by: cddbd v1.5.1PL0 Copyright (c) Steve Scherf et al.
# Submitted via: ExactAudioCopy v0.90b4
#
DISCID=35036504
DTITLE=EUROGROOVE - Let's Go
DYEAR=1995
DGENRE=Eurodance
TTITLE0=RADIO MIX
TTITLE1=FKB CLUB MIX
TTITLE2=ORIGINAL TV MIX
TTITLE3=INSTRUMENTAL
EXTD=YEAR: 1995
EXTT0=
EXTT1=
EXTT2=
EXTT3=
PLAYORDER=
